<svg width="214" height="24" viewBox="0 0 214 24" fill="none" xmlns="http://www.w3.org/2000/svg">
<path d="M33.296 19.25V5.84H38.948C39.836 5.84 40.592 5.996 41.216 6.308C41.852 6.608 42.338 7.04 42.674 7.604C43.022 8.156 43.196 8.828 43.196 9.62C43.196 10.232 43.028 10.808 42.692 11.348C42.368 11.876 41.846 12.314 41.126 12.662V11.528C41.786 11.78 42.308 12.092 42.692 12.464C43.076 12.836 43.346 13.25 43.502 13.706C43.658 14.162 43.736 14.642 43.736 15.146C43.736 16.43 43.31 17.438 42.458 18.17C41.618 18.89 40.448 19.25 38.948 19.25H33.296ZM35.744 17.09H39.2C39.836 17.09 40.34 16.916 40.712 16.568C41.096 16.208 41.288 15.734 41.288 15.146C41.288 14.558 41.096 14.084 40.712 13.724C40.34 13.364 39.836 13.184 39.2 13.184H35.744V17.09ZM35.744 11.042H39.074C39.578 11.042 39.98 10.898 40.28 10.61C40.58 10.31 40.73 9.926 40.73 9.458C40.73 8.99 40.58 8.618 40.28 8.342C39.98 8.066 39.578 7.928 39.074 7.928H35.744V11.042ZM45.2699 19.25V5.624H47.6279V19.25H45.2699ZM52.5211 19.466C51.8371 19.466 51.2431 19.352 50.7391 19.124C50.2351 18.896 49.8451 18.572 49.5691 18.152C49.2931 17.72 49.1551 17.222 49.1551 16.658C49.1551 16.118 49.2751 15.638 49.5151 15.218C49.7551 14.786 50.1271 14.426 50.6311 14.138C51.1351 13.85 51.7711 13.646 52.5391 13.526L55.7431 13.004V14.804L52.9891 15.272C52.5211 15.356 52.1731 15.506 51.9451 15.722C51.7171 15.938 51.6031 16.22 51.6031 16.568C51.6031 16.904 51.7291 17.174 51.9811 17.378C52.2451 17.57 52.5691 17.666 52.9531 17.666C53.4451 17.666 53.8771 17.564 54.2491 17.36C54.6331 17.144 54.9271 16.85 55.1311 16.478C55.3471 16.106 55.4551 15.698 55.4551 15.254V12.734C55.4551 12.314 55.2871 11.966 54.9511 11.69C54.6271 11.402 54.1951 11.258 53.6551 11.258C53.1511 11.258 52.7011 11.396 52.3051 11.672C51.9211 11.936 51.6391 12.29 51.4591 12.734L49.5331 11.798C49.7251 11.282 50.0251 10.838 50.4331 10.466C50.8531 10.082 51.3451 9.782 51.9091 9.566C52.4731 9.35 53.0851 9.242 53.7451 9.242C54.5491 9.242 55.2571 9.392 55.8691 9.692C56.4811 9.98 56.9551 10.388 57.2911 10.916C57.6391 11.432 57.8131 12.038 57.8131 12.734V19.25H55.5811V17.576L56.0851 17.54C55.8331 17.96 55.5331 18.314 55.1851 18.602C54.8371 18.878 54.4411 19.094 53.9971 19.25C53.5531 19.394 53.0611 19.466 52.5211 19.466ZM59.723 19.25V5.624H62.081V14.552L61.181 14.282L65.789 9.458H68.723L65.105 13.4L68.795 19.25H66.095L62.891 14.174L64.295 13.886L61.343 17.054L62.081 15.614V19.25H59.723ZM74.3045 19.466C73.2965 19.466 72.4145 19.238 71.6585 18.782C70.9025 18.326 70.3145 17.708 69.8945 16.928C69.4745 16.148 69.2645 15.284 69.2645 14.336C69.2645 13.352 69.4745 12.482 69.8945 11.726C70.3265 10.958 70.9085 10.352 71.6405 9.908C72.3845 9.464 73.2125 9.242 74.1245 9.242C74.8925 9.242 75.5645 9.368 76.1405 9.62C76.7285 9.872 77.2265 10.22 77.6345 10.664C78.0425 11.108 78.3545 11.618 78.5705 12.194C78.7865 12.758 78.8945 13.37 78.8945 14.03C78.8945 14.198 78.8825 14.372 78.8585 14.552C78.8465 14.732 78.8165 14.888 78.7685 15.02H71.2085V13.22H77.4365L76.3205 14.066C76.4285 13.514 76.3985 13.022 76.2305 12.59C76.0745 12.158 75.8105 11.816 75.4385 11.564C75.0785 11.312 74.6405 11.186 74.1245 11.186C73.6325 11.186 73.1945 11.312 72.8105 11.564C72.4265 11.804 72.1325 12.164 71.9285 12.644C71.7365 13.112 71.6645 13.682 71.7125 14.354C71.6645 14.954 71.7425 15.488 71.9465 15.956C72.1625 16.412 72.4745 16.766 72.8825 17.018C73.3025 17.27 73.7825 17.396 74.3225 17.396C74.8625 17.396 75.3185 17.282 75.6905 17.054C76.0745 16.826 76.3745 16.52 76.5905 16.136L78.4985 17.072C78.3065 17.54 78.0065 17.954 77.5985 18.314C77.1905 18.674 76.7045 18.956 76.1405 19.16C75.5885 19.364 74.9765 19.466 74.3045 19.466ZM81.3465 10.934L81.0405 5.84H83.1645L82.8765 10.934H81.3465ZM89.4646 19.466C88.4206 19.466 87.5086 19.22 86.7286 18.728C85.9606 18.224 85.4326 17.546 85.1446 16.694L86.9086 15.848C87.1606 16.4 87.5086 16.832 87.9526 17.144C88.4086 17.456 88.9126 17.612 89.4646 17.612C89.8966 17.612 90.2386 17.516 90.4906 17.324C90.7426 17.132 90.8686 16.88 90.8686 16.568C90.8686 16.376 90.8146 16.22 90.7066 16.1C90.6106 15.968 90.4726 15.86 90.2926 15.776C90.1246 15.68 89.9386 15.602 89.7346 15.542L88.1326 15.092C87.3046 14.852 86.6746 14.486 86.2426 13.994C85.8226 13.502 85.6126 12.92 85.6126 12.248C85.6126 11.648 85.7626 11.126 86.0626 10.682C86.3746 10.226 86.8006 9.872 87.3406 9.62C87.8926 9.368 88.5226 9.242 89.2306 9.242C90.1546 9.242 90.9706 9.464 91.6786 9.908C92.3866 10.352 92.8906 10.976 93.1906 11.78L91.3906 12.626C91.2226 12.182 90.9406 11.828 90.5446 11.564C90.1486 11.3 89.7046 11.168 89.2126 11.168C88.8166 11.168 88.5046 11.258 88.2766 11.438C88.0486 11.618 87.9346 11.852 87.9346 12.14C87.9346 12.32 87.9826 12.476 88.0786 12.608C88.1746 12.74 88.3066 12.848 88.4746 12.932C88.6546 13.016 88.8586 13.094 89.0866 13.166L90.6526 13.634C91.4566 13.874 92.0746 14.234 92.5066 14.714C92.9506 15.194 93.1726 15.782 93.1726 16.478C93.1726 17.066 93.0166 17.588 92.7046 18.044C92.3926 18.488 91.9606 18.836 91.4086 19.088C90.8566 19.34 90.2086 19.466 89.4646 19.466ZM104.465 19.466C103.481 19.466 102.563 19.292 101.711 18.944C100.859 18.596 100.115 18.11 99.4785 17.486C98.8425 16.862 98.3445 16.13 97.9845 15.29C97.6365 14.438 97.4625 13.52 97.4625 12.536C97.4625 11.54 97.6365 10.622 97.9845 9.782C98.3325 8.942 98.8245 8.21 99.4605 7.586C100.097 6.962 100.841 6.482 101.693 6.146C102.545 5.798 103.469 5.624 104.465 5.624C105.461 5.624 106.385 5.798 107.237 6.146C108.089 6.494 108.833 6.98 109.469 7.604C110.105 8.216 110.597 8.942 110.945 9.782C111.305 10.622 111.485 11.54 111.485 12.536C111.485 13.52 111.305 14.438 110.945 15.29C110.585 16.13 110.087 16.862 109.451 17.486C108.815 18.11 108.071 18.596 107.219 18.944C106.379 19.292 105.461 19.466 104.465 19.466ZM104.465 17.234C105.125 17.234 105.731 17.12 106.283 16.892C106.835 16.652 107.315 16.322 107.723 15.902C108.143 15.482 108.461 14.984 108.677 14.408C108.905 13.832 109.019 13.208 109.019 12.536C109.019 11.864 108.905 11.246 108.677 10.682C108.461 10.106 108.143 9.608 107.723 9.188C107.315 8.756 106.835 8.426 106.283 8.198C105.731 7.97 105.125 7.856 104.465 7.856C103.817 7.856 103.217 7.97 102.665 8.198C102.113 8.426 101.627 8.756 101.207 9.188C100.799 9.608 100.481 10.106 100.253 10.682C100.025 11.246 99.9105 11.864 99.9105 12.536C99.9105 13.208 100.025 13.832 100.253 14.408C100.481 14.984 100.799 15.482 101.207 15.902C101.627 16.322 102.113 16.652 102.665 16.892C103.217 17.12 103.817 17.234 104.465 17.234ZM107.561 20.87L103.385 13.886H105.941L110.171 20.87H107.561ZM116.699 19.466C115.943 19.466 115.283 19.298 114.719 18.962C114.167 18.626 113.741 18.158 113.441 17.558C113.153 16.958 113.009 16.256 113.009 15.452V9.458H115.367V15.254C115.367 15.662 115.445 16.022 115.601 16.334C115.769 16.634 116.003 16.874 116.303 17.054C116.615 17.222 116.963 17.306 117.347 17.306C117.731 17.306 118.073 17.222 118.373 17.054C118.673 16.874 118.907 16.628 119.075 16.316C119.243 16.004 119.327 15.632 119.327 15.2V9.458H121.685V19.25H119.453V17.324L119.651 17.666C119.423 18.266 119.045 18.716 118.517 19.016C118.001 19.316 117.395 19.466 116.699 19.466ZM126.584 19.466C125.9 19.466 125.306 19.352 124.802 19.124C124.298 18.896 123.908 18.572 123.632 18.152C123.356 17.72 123.218 17.222 123.218 16.658C123.218 16.118 123.338 15.638 123.578 15.218C123.818 14.786 124.19 14.426 124.694 14.138C125.198 13.85 125.834 13.646 126.602 13.526L129.806 13.004V14.804L127.052 15.272C126.584 15.356 126.236 15.506 126.008 15.722C125.78 15.938 125.666 16.22 125.666 16.568C125.666 16.904 125.792 17.174 126.044 17.378C126.308 17.57 126.632 17.666 127.016 17.666C127.508 17.666 127.94 17.564 128.312 17.36C128.696 17.144 128.99 16.85 129.194 16.478C129.41 16.106 129.518 15.698 129.518 15.254V12.734C129.518 12.314 129.35 11.966 129.014 11.69C128.69 11.402 128.258 11.258 127.718 11.258C127.214 11.258 126.764 11.396 126.368 11.672C125.984 11.936 125.702 12.29 125.522 12.734L123.596 11.798C123.788 11.282 124.088 10.838 124.496 10.466C124.916 10.082 125.408 9.782 125.972 9.566C126.536 9.35 127.148 9.242 127.808 9.242C128.612 9.242 129.32 9.392 129.932 9.692C130.544 9.98 131.018 10.388 131.354 10.916C131.702 11.432 131.876 12.038 131.876 12.734V19.25H129.644V17.576L130.148 17.54C129.896 17.96 129.596 18.314 129.248 18.602C128.9 18.878 128.504 19.094 128.06 19.25C127.616 19.394 127.124 19.466 126.584 19.466ZM133.786 19.25V5.624H136.144V19.25H133.786ZM138.067 19.25V9.458H140.425V19.25H138.067ZM138.067 8.36V5.84H140.425V8.36H138.067ZM146.812 19.358C145.708 19.358 144.85 19.058 144.238 18.458C143.638 17.846 143.338 16.988 143.338 15.884V11.564H141.646V9.458H141.826C142.306 9.458 142.678 9.332 142.942 9.08C143.206 8.828 143.338 8.462 143.338 7.982V7.226H145.696V9.458H147.946V11.564H145.696V15.758C145.696 16.082 145.75 16.358 145.858 16.586C145.978 16.814 146.158 16.988 146.398 17.108C146.65 17.228 146.968 17.288 147.352 17.288C147.436 17.288 147.532 17.282 147.64 17.27C147.76 17.258 147.874 17.246 147.982 17.234V19.25C147.814 19.274 147.622 19.298 147.406 19.322C147.19 19.346 146.992 19.358 146.812 19.358ZM150.708 23.228C150.444 23.228 150.186 23.204 149.934 23.156C149.682 23.12 149.454 23.054 149.25 22.958V20.978C149.406 21.014 149.592 21.05 149.808 21.086C150.036 21.122 150.246 21.14 150.438 21.14C150.978 21.14 151.368 21.014 151.608 20.762C151.86 20.51 152.082 20.18 152.274 19.772L152.922 18.26L152.886 20.24L148.62 9.458H151.158L154.146 17.414H153.246L156.216 9.458H158.772L154.506 20.24C154.254 20.876 153.948 21.416 153.588 21.86C153.228 22.304 152.808 22.64 152.328 22.868C151.86 23.108 151.32 23.228 150.708 23.228ZM165.439 19.25L161.839 5.84H164.467L167.293 17.27H166.609L169.561 5.84H172.099L175.033 17.27H174.349L177.175 5.84H179.803L176.203 19.25H173.395L170.425 8.126H171.217L168.247 19.25H165.439ZM183.084 19.466C182.4 19.466 181.806 19.352 181.302 19.124C180.798 18.896 180.408 18.572 180.132 18.152C179.856 17.72 179.718 17.222 179.718 16.658C179.718 16.118 179.838 15.638 180.078 15.218C180.318 14.786 180.69 14.426 181.194 14.138C181.698 13.85 182.334 13.646 183.102 13.526L186.306 13.004V14.804L183.552 15.272C183.084 15.356 182.736 15.506 182.508 15.722C182.28 15.938 182.166 16.22 182.166 16.568C182.166 16.904 182.292 17.174 182.544 17.378C182.808 17.57 183.132 17.666 183.516 17.666C184.008 17.666 184.44 17.564 184.812 17.36C185.196 17.144 185.49 16.85 185.694 16.478C185.91 16.106 186.018 15.698 186.018 15.254V12.734C186.018 12.314 185.85 11.966 185.514 11.69C185.19 11.402 184.758 11.258 184.218 11.258C183.714 11.258 183.264 11.396 182.868 11.672C182.484 11.936 182.202 12.29 182.022 12.734L180.096 11.798C180.288 11.282 180.588 10.838 180.996 10.466C181.416 10.082 181.908 9.782 182.472 9.566C183.036 9.35 183.648 9.242 184.308 9.242C185.112 9.242 185.82 9.392 186.432 9.692C187.044 9.98 187.518 10.388 187.854 10.916C188.202 11.432 188.376 12.038 188.376 12.734V19.25H186.144V17.576L186.648 17.54C186.396 17.96 186.096 18.314 185.748 18.602C185.4 18.878 185.004 19.094 184.56 19.25C184.116 19.394 183.624 19.466 183.084 19.466ZM194.578 19.358C193.474 19.358 192.616 19.058 192.004 18.458C191.404 17.846 191.104 16.988 191.104 15.884V11.564H189.412V9.458H189.592C190.072 9.458 190.444 9.332 190.708 9.08C190.972 8.828 191.104 8.462 191.104 7.982V7.226H193.462V9.458H195.712V11.564H193.462V15.758C193.462 16.082 193.516 16.358 193.624 16.586C193.744 16.814 193.924 16.988 194.164 17.108C194.416 17.228 194.734 17.288 195.118 17.288C195.202 17.288 195.298 17.282 195.406 17.27C195.526 17.258 195.64 17.246 195.748 17.234V19.25C195.58 19.274 195.388 19.298 195.172 19.322C194.956 19.346 194.758 19.358 194.578 19.358ZM201.836 19.466C200.828 19.466 199.946 19.238 199.19 18.782C198.434 18.326 197.846 17.708 197.426 16.928C197.006 16.148 196.796 15.284 196.796 14.336C196.796 13.352 197.006 12.482 197.426 11.726C197.858 10.958 198.44 10.352 199.172 9.908C199.916 9.464 200.744 9.242 201.656 9.242C202.424 9.242 203.096 9.368 203.672 9.62C204.26 9.872 204.758 10.22 205.166 10.664C205.574 11.108 205.886 11.618 206.102 12.194C206.318 12.758 206.426 13.37 206.426 14.03C206.426 14.198 206.414 14.372 206.39 14.552C206.378 14.732 206.348 14.888 206.3 15.02H198.74V13.22H204.968L203.852 14.066C203.96 13.514 203.93 13.022 203.762 12.59C203.606 12.158 203.342 11.816 202.97 11.564C202.61 11.312 202.172 11.186 201.656 11.186C201.164 11.186 200.726 11.312 200.342 11.564C199.958 11.804 199.664 12.164 199.46 12.644C199.268 13.112 199.196 13.682 199.244 14.354C199.196 14.954 199.274 15.488 199.478 15.956C199.694 16.412 200.006 16.766 200.414 17.018C200.834 17.27 201.314 17.396 201.854 17.396C202.394 17.396 202.85 17.282 203.222 17.054C203.606 16.826 203.906 16.52 204.122 16.136L206.03 17.072C205.838 17.54 205.538 17.954 205.13 18.314C204.722 18.674 204.236 18.956 203.672 19.16C203.12 19.364 202.508 19.466 201.836 19.466ZM207.942 19.25V9.458H210.156V11.636L209.976 11.312C210.204 10.58 210.558 10.07 211.038 9.782C211.53 9.494 212.118 9.35 212.802 9.35H213.378V11.438H212.532C211.86 11.438 211.32 11.648 210.912 12.068C210.504 12.476 210.3 13.052 210.3 13.796V19.25H207.942Z" fill="#1C170D"/>
</svg>
